<svg width="32" height="32" viewBox="0 0 32 32" fill="none" xmlns="http://www.w3.org/2000/svg">
<g clip-path="url(#clip0_127_4848)">
<path opacity="0.2" d="M14.4995 25C20.2985 25 24.9995 20.299 24.9995 14.5C24.9995 8.70101 20.2985 4 14.4995 4C8.70052 4 3.99951 8.70101 3.99951 14.5C3.99951 20.299 8.70052 25 14.4995 25Z" fill="#0A65CC"/>
<path d="M10.4995 14.5H18.4995" stroke="#0A65CC" stroke-width="2" stroke-linecap="round" stroke-linejoin="round"/>
<path d="M14.4995 10.5V18.5" stroke="#0A65CC" stroke-width="2" stroke-linecap="round" stroke-linejoin="round"/>
<path d="M14.4995 25C20.2985 25 24.9995 20.299 24.9995 14.5C24.9995 8.70101 20.2985 4 14.4995 4C8.70052 4 3.99951 8.70101 3.99951 14.5C3.99951 20.299 8.70052 25 14.4995 25Z" stroke="#0A65CC" stroke-width="2" stroke-linecap="round" stroke-linejoin="round"/>
<path d="M21.9238 21.9238L27.9989 27.9989" stroke="#0A65CC" stroke-width="2" stroke-linecap="round" stroke-linejoin="round"/>
</g>
<defs>
<clipPath id="clip0_127_4848">
<rect width="32" height="32" fill="white"/>
</clipPath>
</defs>
</svg>
